HIERARCHY
ROOT Hips
{
	OFFSET	0.00	0.00	0.00
	CHANNELS 6 Xposition Yposition Zposition Zrotation Xrotation Yrotation
	JOINT LeftUpperLeg
	{
		OFFSET	-0.060319	 0.002079	 0.072983
		CHANNELS 3 Zrotation Xrotation Yrotation
		JOINT LeftLowerLeg
		{
			OFFSET	 0.351798	-0.008011	 0.005146
			CHANNELS 3 Zrotation Xrotation Yrotation
			JOINT LeftFoot
			{
				OFFSET	 0.378666	 0.003828	-0.003777
				CHANNELS 3 Zrotation Xrotation Yrotation
				JOINT LeftToes
				{
					OFFSET	 0.084296	 0.047710	-0.003922
					CHANNELS 3 Zrotation Xrotation Yrotation
					End Site
					{
						OFFSET	 0.084296	 0.047710	-0.003922
					}
				}
			}
		}
	}
	JOINT RightUpperLeg
	{
		OFFSET	-0.060836	 0.002079	-0.072553
		CHANNELS 3 Zrotation Xrotation Yrotation
		JOINT RightLowerLeg
		{
			OFFSET	 0.351364	-0.008011	-0.018234
			CHANNELS 3 Zrotation Xrotation Yrotation
			JOINT RightFoot
			{
				OFFSET	 0.378545	 0.003824	-0.010315
				CHANNELS 3 Zrotation Xrotation Yrotation
				JOINT RightToes
				{
					OFFSET	 0.084392	 0.047660	 0.002026
					CHANNELS 3 Zrotation Xrotation Yrotation
					End Site
					{
						OFFSET	 0.084392	 0.047660	 0.002026
					}
				}
			}
		}
	}
	JOINT Character1_Spine
	{
		OFFSET	 0.022713	 0.008182	-0.000081
		CHANNELS 3 Zrotation Xrotation Yrotation
		JOINT Spine
		{
			OFFSET	 0.091343	 0.001755	-0.000000
			CHANNELS 3 Zrotation Xrotation Yrotation
			JOINT Chest
			{
				OFFSET	 0.087667	-0.000304	-0.000000
				CHANNELS 3 Zrotation Xrotation Yrotation
				JOINT LeftShoulder
				{
					OFFSET	 0.122367	-0.001395	 0.042227
					CHANNELS 3 Zrotation Xrotation Yrotation
					JOINT LeftUpperArm
					{
						OFFSET	 0.055437	-0.000000	 0.000001
						CHANNELS 3 Zrotation Xrotation Yrotation
						JOINT LeftLowerArm
						{
							OFFSET	 0.233777	 0.000017	 0.000012
							CHANNELS 3 Zrotation Xrotation Yrotation
							JOINT LeftHand
							{
								OFFSET	 0.162482	-0.000001	 0.000000
								CHANNELS 3 Zrotation Xrotation Yrotation
								JOINT LeftIndexProximal
								{
									OFFSET	 0.080750	 0.025713	-0.001428
									CHANNELS 3 Zrotation Xrotation Yrotation
									JOINT LeftIndexIntermediate
									{
										OFFSET	 0.024260	 0.002507	-0.001187
										CHANNELS 3 Zrotation Xrotation Yrotation
										JOINT LeftIndexDistal
										{
											OFFSET	 0.016097	 0.000118	-0.000458
											CHANNELS 3 Zrotation Xrotation Yrotation
											End Site
											{
												OFFSET	 0.016097	 0.000118	-0.000458
											}
										}
									}
								}
								JOINT LeftMiddleProximal
								{
									OFFSET	 0.080696	 0.005822	-0.006021
									CHANNELS 3 Zrotation Xrotation Yrotation
									JOINT LeftMiddleIntermediate
									{
										OFFSET	 0.025063	 0.001482	 0.003794
										CHANNELS 3 Zrotation Xrotation Yrotation
										JOINT LeftMiddleDistal
										{
											OFFSET	 0.019431	-0.000068	 0.000162
											CHANNELS 3 Zrotation Xrotation Yrotation
											End Site
											{
												OFFSET	 0.019431	-0.000068	 0.000162
											}
										}
									}
								}
								JOINT LeftLittleProximal
								{
									OFFSET	 0.065753	-0.027836	-0.002284
									CHANNELS 3 Zrotation Xrotation Yrotation
									JOINT LeftLittleIntermediate
									{
										OFFSET	 0.018097	 0.000133	-0.000014
										CHANNELS 3 Zrotation Xrotation Yrotation
										JOINT LeftLittleDistal
										{
											OFFSET	 0.013911	 0.000003	 0.000248
											CHANNELS 3 Zrotation Xrotation Yrotation
											End Site
											{
												OFFSET	 0.013911	 0.000003	 0.000248
											}
										}
									}
								}
								JOINT LeftRingProximal
								{
									OFFSET	 0.076793	-0.012626	-0.006246
									CHANNELS 3 Zrotation Xrotation Yrotation
									JOINT LeftRingIntermediate
									{
										OFFSET	 0.023683	-0.000754	 0.001098
										CHANNELS 3 Zrotation Xrotation Yrotation
										JOINT LeftRingDistal
										{
											OFFSET	 0.015908	 0.000167	-0.000861
											CHANNELS 3 Zrotation Xrotation Yrotation
											End Site
											{
												OFFSET	 0.015908	 0.000167	-0.000861
											}
										}
									}
								}
								JOINT LeftThumbProximal
								{
									OFFSET	 0.024761	 0.018266	 0.014236
									CHANNELS 3 Zrotation Xrotation Yrotation
									JOINT LeftThumbIntermediate
									{
										OFFSET	 0.032146	 0.001986	 0.001523
										CHANNELS 3 Zrotation Xrotation Yrotation
										JOINT LeftThumbDistal
										{
											OFFSET	 0.017566	-0.001003	 0.000085
											CHANNELS 3 Zrotation Xrotation Yrotation
											End Site
											{
												OFFSET	 0.017566	-0.001003	 0.000085
											}
										}
									}
								}
							}
						}
					}
				}
				JOINT Neck
				{
					OFFSET	 0.156851	 0.008298	 0.000287
					CHANNELS 3 Zrotation Xrotation Yrotation
					JOINT Head
					{
						OFFSET	 0.078083	-0.005535	-0.000000
						CHANNELS 3 Zrotation Xrotation Yrotation
						End Site
						{
							OFFSET	 0.078083	-0.005535	-0.000000
						}
					}
				}
				JOINT RightShoulder
				{
					OFFSET	 0.122455	-0.000150	-0.041994
					CHANNELS 3 Zrotation Xrotation Yrotation
					JOINT RightUpperArm
					{
						OFFSET	 0.055437	 0.000000	-0.000001
						CHANNELS 3 Zrotation Xrotation Yrotation
						JOINT RightLowerArm
						{
							OFFSET	 0.233779	 0.000017	-0.000013
							CHANNELS 3 Zrotation Xrotation Yrotation
							JOINT RightHand
							{
								OFFSET	 0.162480	-0.000001	 0.000002
								CHANNELS 3 Zrotation Xrotation Yrotation
								JOINT RightIndexProximal
								{
									OFFSET	 0.077459	 0.024774	 0.023877
									CHANNELS 3 Zrotation Xrotation Yrotation
									JOINT RightIndexIntermediate
									{
										OFFSET	 0.024233	-0.002230	-0.002009
										CHANNELS 3 Zrotation Xrotation Yrotation
										JOINT RightIndexDistal
										{
											OFFSET	 0.015886	 0.000001	-0.002642
											CHANNELS 3 Zrotation Xrotation Yrotation
											End Site
											{
												OFFSET	 0.015886	 0.000001	-0.002642
											}
										}
									}
								}
								JOINT RightMiddleProximal
								{
									OFFSET	 0.077341	 0.004360	 0.024111
									CHANNELS 3 Zrotation Xrotation Yrotation
									JOINT RightMiddleIntermediate
									{
										OFFSET	 0.025355	-0.000680	 0.001169
										CHANNELS 3 Zrotation Xrotation Yrotation
										JOINT RightMiddleDistal
										{
											OFFSET	 0.019416	-0.000417	-0.000705
											CHANNELS 3 Zrotation Xrotation Yrotation
											End Site
											{
												OFFSET	 0.019416	-0.000417	-0.000705
											}
										}
									}
								}
								JOINT RightLittleProximal
								{
									OFFSET	 0.065019	-0.027722	 0.010366
									CHANNELS 3 Zrotation Xrotation Yrotation
									JOINT RightLittleIntermediate
									{
										OFFSET	 0.018098	-0.000144	-0.000053
										CHANNELS 3 Zrotation Xrotation Yrotation
										JOINT RightLittleDistal
										{
											OFFSET	 0.013886	 0.000267	 0.000828
											CHANNELS 3 Zrotation Xrotation Yrotation
											End Site
											{
												OFFSET	 0.013886	 0.000267	 0.000828
											}
										}
									}
								}
								JOINT RightRingProximal
								{
									OFFSET	 0.074304	-0.013711	 0.019656
									CHANNELS 3 Zrotation Xrotation Yrotation
									JOINT RightRingIntermediate
									{
										OFFSET	 0.023458	-0.000008	-0.003508
										CHANNELS 3 Zrotation Xrotation Yrotation
										JOINT RightRingDistal
										{
											OFFSET	 0.015894	-0.001033	 0.000378
											CHANNELS 3 Zrotation Xrotation Yrotation
											End Site
											{
												OFFSET	 0.015894	-0.001033	 0.000378
											}
										}
									}
								}
								JOINT RightThumbProximal
								{
									OFFSET	 0.026339	 0.020861	-0.004527
									CHANNELS 3 Zrotation Xrotation Yrotation
									JOINT RightThumbIntermediate
									{
										OFFSET	 0.032030	 0.001128	 0.000602
										CHANNELS 3 Zrotation Xrotation Yrotation
										JOINT RightThumbDistal
										{
											OFFSET	 0.017586	 0.000511	 0.000152
											CHANNELS 3 Zrotation Xrotation Yrotation
											End Site
											{
												OFFSET	 0.017586	 0.000511	 0.000152
											}
										}
									}
								}
							}
						}
					}
				}
			}
		}
	}
}
MOTION
Frames:    4
Frame Time: 0.1428571
 0.064172	 0.837670	-0.897909	-67.393490	-83.428220	-157.730800	-2.043267	 0.160312	-177.484600	-16.089820	 2.936715	-10.334070	 62.037330	-7.088716	 6.751252	 62.519460	-3.188659	 0.006148	 0.708806	-0.133835	 177.940800	 6.709139	 1.080826	 11.910640	 33.589530	 3.046333	 2.347159	 62.519680	-0.000152	 0.006819	 4.902136	 0.017393	 0.202796	 3.214505	 0.323408	 1.818337	-17.352180	-0.847073	 0.059906	 18.089590	 0.786613	-90.318680	-10.392870	 2.338887	-47.336620	 29.665290	-21.294020	 12.685140	 4.798738	-8.965021	-14.692120	 0.400901	 11.965310	-4.748454	 0.477874	 0.266074	 1.215439	-0.546671	 0.281770	 7.091043	-6.028159	 6.440647	 2.122423	 1.345341	-3.951414	-7.945199	-1.888770	-2.723091	 6.121307	-24.889980	-9.392361	-17.565870	-2.647219	 2.127349	 1.980443	 0.159782	-1.149520	 1.319157	-14.969960	-7.591256	-10.839200	-0.178069	 2.674636	-6.625014	 0.386537	-3.212840	 3.918352	 164.427200	 55.870460	-127.805100	 6.634563	-0.414953	-3.399435	-4.256975	 0.117892	-1.694328	 27.265230	-2.361024	-8.525533	-4.210841	 8.700191	 10.621680	 18.089590	 0.786612	 89.678790	-9.513676	-1.747115	 48.174770	 32.245380	 1.707864	-2.289163	 14.679010	-3.441502	 29.505690	-177.389600	-8.831868	-175.013600	-0.016568	-3.219298	-3.883214	 0.855641	-4.408458	 1.686657	 177.319100	-9.036760	-172.642800	 1.241053	-1.979778	-4.426968	-0.113596	 0.528879	-4.788302	 158.169100	-26.491550	 168.876600	 1.386256	 2.855342	 4.611974	 0.094532	 2.019469	-1.637273	 166.453600	-25.945450	 166.554900	 2.005292	-2.321953	 9.005940	-2.970803	-0.971437	-2.537858	 7.912983	 55.262230	 25.182600	 0.027068	 3.778531	-1.271253	 1.596345	-1.114234	-1.334432
 0.066308	 0.839655	-0.887770	-67.887930	-84.332990	-158.189200	-3.519212	 0.116272	-177.451200	-17.136770	 2.550819	-9.188607	 57.000530	-5.512484	 2.642009	 62.519460	-3.188659	 0.006148	 0.535861	-0.113652	 178.466700	 5.555490	 0.734143	 10.106130	 37.992650	-5.530981	 8.715873	 62.519680	-0.000152	 0.006819	 4.902136	 0.017393	 0.202796	 2.086032	 0.179165	 1.137036	-17.352180	-0.847073	 0.059906	 18.089590	 0.786613	-90.318680	-6.405282	-5.087194	-29.467250	 31.686750	-25.835140	 16.087140	 26.029090	-9.416899	-55.575040	 0.400901	 11.965310	-4.748454	 0.477874	 0.266074	 1.215439	-0.546671	 0.281770	 7.091043	-6.028159	 6.440647	 2.122423	 1.345341	-3.951414	-7.945199	-1.888770	-2.723091	 6.121307	-24.889980	-9.392361	-17.565870	-2.647219	 2.127349	 1.980443	 0.159782	-1.149520	 1.319157	-14.969960	-7.591256	-10.839200	-0.178069	 2.674636	-6.625014	 0.386537	-3.212840	 3.918352	 164.427200	 55.870460	-127.805100	 6.634563	-0.414953	-3.399435	-4.256975	 0.117892	-1.694328	 27.170720	-1.763265	-7.274683	-3.735952	 6.536393	 9.334585	 18.089590	 0.786612	 89.678790	-7.752318	 3.829734	 32.047000	 48.449900	-9.112182	 8.018182	-12.446790	-6.435606	 22.744670	-177.389600	-8.831868	-175.013600	-0.016568	-3.219298	-3.883214	 0.855641	-4.408458	 1.686657	 177.319100	-9.036760	-172.642800	 1.241053	-1.979778	-4.426968	-0.113596	 0.528879	-4.788302	 158.169100	-26.491550	 168.876600	 1.386256	 2.855342	 4.611974	 0.094532	 2.019469	-1.637273	 166.453600	-25.945450	 166.554900	 2.005292	-2.321953	 9.005940	-2.970803	-0.971437	-2.537858	 7.912983	 55.262230	 25.182600	 0.027068	 3.778531	-1.271253	 1.596345	-1.114234	-1.334432
 0.070483	 0.852746	-0.873235	-89.713620	-85.338980	-179.918100	-5.937432	-0.008213	-176.698800	-17.727380	 2.350499	-9.433656	 61.759710	-1.783067	-2.820463	 62.519460	-3.188659	 0.006148	-2.450356	-0.194919	 179.179900	 6.913842	 1.346726	 9.105179	 33.521810	-14.791890	 13.562070	 62.519680	-0.000152	 0.006819	 4.902136	 0.017393	 0.202796	-2.023927	 0.051234	 0.604618	-17.352180	-0.847073	 0.059906	 18.089590	 0.786613	-90.318680	 28.017870	-6.900870	-0.609752	 17.482300	-35.235710	 10.782740	-4.575687	-41.029590	-63.203150	 0.400901	 11.965310	-4.748454	 0.477874	 0.266074	 1.215439	-0.546671	 0.281770	 7.091043	-6.028159	 6.440647	 2.122423	 1.345341	-3.951414	-7.945199	-1.888770	-2.723091	 6.121307	-24.889980	-9.392361	-17.565870	-2.647219	 2.127349	 1.980443	 0.159782	-1.149520	 1.319157	-14.969960	-7.591256	-10.839200	-0.178069	 2.674636	-6.625014	 0.386537	-3.212840	 3.918352	 164.427200	 55.870460	-127.805100	 6.634563	-0.414953	-3.399435	-4.256975	 0.117892	-1.694328	 27.202630	-0.919096	-5.920042	-2.791299	 5.067800	 9.710793	 18.089590	 0.786612	 89.678790	 17.084260	 7.412675	 4.861813	 47.841390	-11.698960	 10.589410	-24.827300	 6.143175	 31.765600	-177.389600	-8.831868	-175.013600	-0.016568	-3.219298	-3.883214	 0.855641	-4.408458	 1.686657	 177.319100	-9.036760	-172.642800	 1.241053	-1.979778	-4.426968	-0.113596	 0.528879	-4.788302	 158.169100	-26.491550	 168.876600	 1.386256	 2.855342	 4.611974	 0.094532	 2.019469	-1.637273	 166.453600	-25.945450	 166.554900	 2.005292	-2.321953	 9.005940	-2.970803	-0.971437	-2.537858	 7.912983	 55.262230	 25.182600	 0.027068	 3.778531	-1.271253	 1.596345	-1.114234	-1.334432
 0.070776	 0.857458	-0.864377	-92.380810	-84.272000	 177.427500	-6.210059	-0.034803	-176.499200	-18.326140	 3.143270	-12.265890	 60.543690	-5.191409	 2.987688	 62.519460	-3.188659	 0.006148	-3.056759	-0.219673	 179.280700	 7.760341	 1.838186	 10.610230	 23.188840	-11.537080	 8.643561	 62.519680	-0.000152	 0.006819	 4.902136	 0.017393	 0.202796	-3.092799	 0.052520	 0.796095	-17.352180	-0.847073	 0.059906	 18.089590	 0.786613	-90.318680	 31.663350	-0.948068	 5.928889	 14.739290	-29.341270	 7.779968	-0.433590	-41.241410	-44.424400	 0.400901	 11.965310	-4.748454	 0.477874	 0.266074	 1.215439	-0.546671	 0.281770	 7.091043	-6.028159	 6.440647	 2.122423	 1.345341	-3.951414	-7.945199	-1.888770	-2.723091	 6.121307	-24.889980	-9.392361	-17.565870	-2.647219	 2.127349	 1.980443	 0.159782	-1.149520	 1.319157	-14.969960	-7.591256	-10.839200	-0.178069	 2.674636	-6.625014	 0.386537	-3.212840	 3.918352	 164.427200	 55.870460	-127.805100	 6.634563	-0.414953	-3.399435	-4.256975	 0.117892	-1.694328	 27.804120	-0.814820	-6.043094	-3.692353	 4.975936	 9.380177	 18.089590	 0.786612	 89.678790	 21.039100	 2.501552	-3.983254	 42.145310	-11.218690	 8.301919	-2.860853	 1.997685	 40.103070	-177.389600	-8.831868	-175.013600	-0.016568	-3.219298	-3.883214	 0.855641	-4.408458	 1.686657	 177.319100	-9.036760	-172.642800	 1.241053	-1.979778	-4.426968	-0.113596	 0.528879	-4.788302	 158.169100	-26.491550	 168.876600	 1.386256	 2.855342	 4.611974	 0.094532	 2.019469	-1.637273	 166.453600	-25.945450	 166.554900	 2.005292	-2.321953	 9.005940	-2.970803	-0.971437	-2.537858	 7.912983	 55.262230	 25.182600	 0.027068	 3.778531	-1.271253	 1.596345	-1.114234	-1.334432
